<svg width="158" height="158" viewBox="0 0 158 158" fill="none" xmlns="http://www.w3.org/2000/svg">
<path d="M126.775 17.75C126.25 25.5375 124.938 33.15 122.838 40.4125L133.337 50.9125C136.925 40.4125 139.2 29.3 139.987 17.75H126.775ZM40.5 122.925C33.0625 125.025 25.45 126.337 17.75 126.862V139.9C29.3 139.112 40.4125 136.837 51 133.337L40.5 122.925ZM118.375 0.25H149C153.812 0.25 157.75 4.1875 157.75 9C157.75 91.1625 91.1625 157.75 9 157.75C4.1875 157.75 0.25 153.812 0.25 149V118.463C0.25 113.65 4.1875 109.713 9 109.713C19.85 109.713 30.4375 107.962 40.2375 104.725C41.1125 104.375 42.075 104.288 42.95 104.288C45.225 104.288 47.4125 105.163 49.1625 106.825L68.4125 126.075C93.175 113.387 113.475 93.175 126.075 68.4125L106.825 49.1625C104.375 46.7125 103.675 43.3 104.638 40.2375C107.875 30.4375 109.625 19.9375 109.625 9C109.625 4.1875 113.562 0.25 118.375 0.25Z" fill="white"/>
</svg>
