<svg width="32" height="28" viewBox="0 0 32 28" fill="none" xmlns="http://www.w3.org/2000/svg">
<path d="M29 0H21C19.3125 0 18 1.375 18 3V11C18 12.6875 19.3125 14 21 14H26V18C26 20.25 24.1875 22 22 22H21.5C20.625 22 20 22.6875 20 23.5V26.5C20 27.375 20.625 28 21.5 28H22C27.5 28 32 23.5625 32 18V3C32 1.375 30.625 0 29 0ZM11 0H3C1.3125 0 0 1.375 0 3V11C0 12.6875 1.3125 14 3 14H8V18C8 20.25 6.1875 22 4 22H3.5C2.625 22 2 22.6875 2 23.5V26.5C2 27.375 2.625 28 3.5 28H4C9.5 28 14 23.5625 14 18V3C14 1.375 12.625 0 11 0Z" fill="white"/>
</svg>
